<svg xmlns="http://www.w3.org/2000/svg" viewBox="0 0 640 360" role="img" aria-label="AI content validator thumbnail">
  <rect width="640" height="360" fill="#f8f5f1"/>
  <rect x="112" y="68" width="276" height="224" rx="28" fill="#fffdf9" stroke="#e3dacf" stroke-width="2"/>
  <rect x="154" y="110" width="150" height="16" rx="8" fill="#d8e2dd"/>
  <rect x="154" y="154" width="190" height="34" rx="14" fill="#f1ede8" stroke="#e3dacf" stroke-width="2"/>
  <rect x="154" y="214" width="132" height="34" rx="14" fill="#3b241c"/>
  <rect x="422" y="102" width="106" height="156" rx="26" fill="#efe7dd" stroke="#3b241c" stroke-width="4"/>
  <path d="M448 178l18 18 36-46" fill="none" stroke="#2f6f61" stroke-width="9" stroke-linecap="round" stroke-linejoin="round"/>
  <path d="M390 86l22-9 9-22 9 22 22 9-22 9-9 22-9-22-22-9z" fill="#2f6f61" opacity=".2"/>
  <path d="M438 282l18-42 18 42M456 240v70" stroke="#d2c6b8" stroke-width="7" stroke-linecap="round" stroke-linejoin="round"/>
</svg>
